<!--?xml version="1.0" encoding="utf-8"?-->
<!-- Generator: Adobe Illustrator 21.0.0, SVG Export Plug-In . SVG Version: 6.00 Build 0)  -->
<svg version="1.0" id="图层_1" xmlns="http://www.w3.org/2000/svg" xmlns:xlink="http://www.w3.org/1999/xlink" x="0px" y="0px" viewBox="0 0 16 16" enable-background="new 0 0 16 16" xml:space="preserve" style="width: 150px; height: 150px;" width="150" height="150">
<path fill="#282B33" d="M14,7V5h-2v2H9.9C9.44,4.72,7.42,3,5,3C2.24,3,0,5.24,0,8c0,2.76,2.24,5,5,5c2.42,0,4.44-1.72,4.9-4H12h2h2
	V7H14z M5,11c-1.65,0-3-1.35-3-3s1.35-3,3-3c1.65,0,3,1.35,3,3S6.65,11,5,11z"></path>
</svg>
