<!--?xml version="1.0" encoding="UTF-8"?-->
<svg width="36" height="36" viewBox="0 0 24 32" version="1.1" xmlns="http://www.w3.org/2000/svg" xmlns:xlink="http://www.w3.org/1999/xlink" style="width: 36px; height: 36px;">
    <!-- Generator: Sketch 57.1 (83088) - https://sketch.com -->
    <title>编组</title>
    <desc>Created with Sketch.</desc>
    <g id="页面-1" stroke="none" stroke-width="1" fill="none" fill-rule="evenodd">
        <g id="编组" fill="#212121" fill-rule="nonzero">
            <path d="M12,10 C18.6016989,10 24,8.03698141 24,5 C24,1.96301859 18.6016989,0 12,0 C5.39830112,0 0,1.96301859 0,5 C0,8.03698141 5.39830112,10 12,10 Z M12,8 C6.45143439,8 2,6.38129659 2,5 C2,3.61870341 6.45143439,2 12,2 C17.5485656,2 22,3.61870341 22,5 C22,6.38129659 17.5485656,8 12,8 Z" id="Oval"></path>
            <path d="M22.0027195,5.49056604 L22.0027195,18.6863349 L22,27.0751475 C22,28.410182 17.5439236,30 12,30 C6.45607636,30 2,28.410182 2,27.0754717 L2,5 L-1.77635684e-15,5 L-1.77635684e-15,27.0754717 C-1.77635684e-15,30.0756756 5.3936592,32 12,32 C18.6063408,32 24,30.0756756 24,27.0754717 L24.0027195,18.6866591 L24.0027195,12.0884505 L24.0027195,5.49056604 L22.0027195,5.49056604 Z" id="Oval"></path>
            <path d="M0.483825131,21.8886984 C3.82707356,23.9035666 7.80690624,25 11.9733695,25 C16.1634828,25 20.1646289,23.891041 23.5189194,21.8548232 L22.4810806,20.1451768 C19.4410957,21.9905958 15.7991453,23 11.9733695,23 C8.16910605,23 4.54640899,22.0019566 1.51617487,20.175732 L0.483825131,21.8886984 Z" id="Oval"></path>
            <path d="M0.483825131,13.8886984 C3.82707356,15.9035666 7.80690624,17 11.9733695,17 C16.1634828,17 20.1646289,15.891041 23.5189194,13.8548232 L22.4810806,12.1451768 C19.4410957,13.9905958 15.7991453,15 11.9733695,15 C8.16910605,15 4.54640899,14.0019566 1.51617487,12.175732 L0.483825131,13.8886984 Z" id="Oval"></path>
        </g>
    </g>
</svg>