<svg xmlns="http://www.w3.org/2000/svg" viewBox="0 0 32 32"><defs><style>.cls-1{fill:#fff;}.cls-2{fill:none;stroke:#000;stroke-linecap:round;stroke-miterlimit:10;}</style></defs><title> 1</title><g id="图层_2" data-name="图层 2"><g id="图层_1-2" data-name="图层 1"><rect width="32" height="32" rx="12"/><path class="cls-1" d="M16.49,22.54a7.22,7.22,0,1,1,7.22-7.22A7.23,7.23,0,0,1,16.49,22.54Z"/><path class="cls-1" d="M24.37,23.83a.62.62,0,0,1-.44-.18l-3.08-3.08a.62.62,0,0,1,0-.89.64.64,0,0,1,.89,0l3.08,3.08a.64.64,0,0,1,0,.89.66.66,0,0,1-.45.18Z"/><path class="cls-2" d="M16.23,10.28a5.21,5.21,0,0,1,5,3.66"/></g></g></svg>